# xmcd
#
# Track frame offsets:
#	150
#	22638
#	40752
#	63781
#	80063
#	98286
#	114109
#	133453
#	154132
#	172111
#	192347
#	207321
#	228414
#	251258
#
# Disc length: 3667 seconds
#
# Revision: 5
# Processed by: cddbd v1.5.2PL0 Copyright (c) Steve Scherf et al.
# Submitted via: EasyCDDAExtractor 15.3.0.1
#
DISCID=ab0e510e
DTITLE=Alejandro Sanz - Grandes Exitos 91_04 - CD 1 - 91_96
DYEAR=2004
DGENRE=Latin
TTITLE0=Mi Soledad Y Yo
TTITLE1=Tu No Tienes Alma (Inedito)
TTITLE2=La Fuerza Del Corazon
TTITLE3=Lo Ves (Piano Y Voz)
TTITLE4=Quiero Morir En Tu Veneno
TTITLE5=Tu Letra Podre Acariciar (Basico)
TTITLE6=Si Tu Me Miras
TTITLE7=Mi Primera Cancion
TTITLE8=Como Te Echo De Menos
TTITLE9=Pisando Fuerte
TTITLE10=Viviendo Deprisa
TTITLE11=Lo Que Fui Es Lo Que Soy
TTITLE12=Los Dos Cogidos De La Mano
TTITLE13=Se Le Apago La Luz
EXTD=YEAR: 2004
EXTT0=
EXTT1=
EXTT2=
EXTT3=
EXTT4=
EXTT5=
EXTT6=
EXTT7=
EXTT8=
EXTT9=
EXTT10=
EXTT11=
EXTT12=
EXTT13=
PLAYORDER=
